<svg xmlns="http://www.w3.org/2000/svg" viewBox="0 0 14 13"><path fill-rule="evenodd" clip-rule="evenodd" d="M14 6.095c0 3.366-3.134 6.094-7 6.094a7.97 7.97 0 0 1-2.054-.266c-.51.258-1.684.752-3.658 1.074-.175.028-.308-.153-.239-.315.31-.728.59-1.698.674-2.582C.65 9.029 0 7.627 0 6.095 0 2.729 3.134 0 7 0s7 2.729 7 6.095Zm-9.625 0c0 .23-.092.452-.256.615a.877.877 0 0 1-1.494-.615c0-.231.092-.453.256-.616a.877.877 0 0 1 1.494.616Zm3.5 0c0 .23-.092.452-.256.615a.877.877 0 0 1-1.494-.615c0-.231.092-.453.256-.616a.877.877 0 0 1 1.494.616Zm2.625.87a.877.877 0 0 0 .875-.87.877.877 0 0 0-1.75 0c0 .23.092.452.256.615a.877.877 0 0 0 .619.255Z"/></svg>
