<svg width="20" height="23" xmlns="http://www.w3.org/2000/svg"><path d="M19.054 5.933a5.42 5.42 0 0 1-3.275-1.095A5.433 5.433 0 0 1 13.614.546H10.1v9.598l-.004 5.258a3.18 3.18 0 0 1-3.364 3.173 3.167 3.167 0 0 1-1.454-.447 3.18 3.18 0 0 1-1.554-2.678 3.182 3.182 0 0 1 4.188-3.065V8.818A6.911 6.911 0 0 0 6.9 8.743a6.735 6.735 0 0 0-5.061 2.264 6.589 6.589 0 0 0-1.662 3.975 6.58 6.58 0 0 0 1.96 5.127 6.737 6.737 0 0 0 4.763 1.95c.342 0 .68-.025 1.013-.075a6.713 6.713 0 0 0 3.75-1.875 6.576 6.576 0 0 0 1.973-4.68l-.018-7.85a8.879 8.879 0 0 0 5.446 1.85V5.932h-.01Z"/></svg>
