<svg width="24" height="19" xmlns="http://www.w3.org/2000/svg"><path d="M23.303 2.242a9.538 9.538 0 0 1-2.746.751A4.794 4.794 0 0 0 22.659.35a9.57 9.57 0 0 1-3.035 1.16 4.781 4.781 0 0 0-8.146 4.36A13.57 13.57 0 0 1 1.623.875a4.78 4.78 0 0 0 1.48 6.383 4.747 4.747 0 0 1-2.166-.599v.061a4.783 4.783 0 0 0 3.834 4.687 4.764 4.764 0 0 1-2.158.083 4.786 4.786 0 0 0 4.465 3.32 9.592 9.592 0 0 1-5.937 2.046c-.385 0-.767-.023-1.14-.067a13.522 13.522 0 0 0 7.327 2.148c8.793 0 13.602-7.284 13.602-13.602 0-.207-.005-.414-.014-.618a9.695 9.695 0 0 0 2.386-2.474Z"/></svg>
