<svg width="26" height="14" xmlns="http://www.w3.org/2000/svg"><path d="M23.174 9.627c2.022 1.764 2.442 2.394 2.51 2.502.839 1.306-.928 1.465-.928 1.465h-3.724s-.907.01-1.682-.495c-1.262-.813-2.585-2.39-3.514-2.116-.78.23-.773 1.266-.773 2.152 0 .317-.277.46-.904.46h-1.164c-2.04 0-4.254-.676-6.462-2.945C3.41 7.443.67.983.67.983S.508.657.684.459c.2-.222.743-.193.743-.193L5.038.265s.34.063.584.232c.202.138.314.403.314.403s.606 1.97 1.379 3.225c1.51 2.45 2.212 2.513 2.724 2.25.749-.383.505-2.989.505-2.989s.033-1.118-.357-1.617c-.301-.386-.877-.59-1.128-.623-.204-.026.136-.376.57-.576.578-.253 1.365-.318 2.723-.305 1.056.01 1.36.072 1.773.165 1.246.283.938 1.028.938 3.646 0 .839-.117 2.018.526 2.41.278.168 1.229.374 2.92-2.327.804-1.282 1.443-3.407 1.443-3.407s.132-.234.337-.35c.21-.118.204-.115.491-.115.288 0 3.17-.022 3.803-.022.632 0 1.225-.007 1.327.357.146.523-.467 2.317-2.02 4.263-2.551 3.194-2.834 2.895-.716 4.742Z"/></svg>
